<svg width="843" height="150" viewBox="0 0 843 150" fill="none" xmlns="http://www.w3.org/2000/svg">
<path d="M72.1724 37.425H86.8718C89.0717 37.425 90.8717 35.625 90.8717 33.425C90.8717 31.225 89.0967 29.425 86.8718 29.425H72.1724C69.9724 29.425 68.1725 31.225 68.1725 33.425C68.1725 35.625 69.9474 37.425 72.1724 37.425Z" fill="white"/>
<path d="M72.1724 37.425H86.8718C89.0717 37.425 90.8717 35.625 90.8717 33.425C90.8717 31.225 89.0967 29.425 86.8718 29.425H72.1724C69.9724 29.425 68.1725 31.225 68.1725 33.425C68.1725 35.625 69.9474 37.425 72.1724 37.425Z" fill="url(#paint0_linear_120_29)" fill-opacity="0.5"/>
<path d="M72.1724 37.425H86.8718C89.0717 37.425 90.8717 35.625 90.8717 33.425C90.8717 31.225 89.0967 29.425 86.8718 29.425H72.1724C69.9724 29.425 68.1725 31.225 68.1725 33.425C68.1725 35.625 69.9474 37.425 72.1724 37.425Z" fill="url(#paint1_radial_120_29)" fill-opacity="0.2"/>
<path d="M96.2215 61.475H62.7977C60.5728 61.475 58.7979 59.675 58.7979 57.475C58.7979 55.275 60.5978 53.475 62.7977 53.475H96.2215C98.4464 53.475 100.221 55.275 100.221 57.475C100.221 59.675 98.4214 61.475 96.2215 61.475Z" fill="white"/>
<path d="M96.2215 61.475H62.7977C60.5728 61.475 58.7979 59.675 58.7979 57.475C58.7979 55.275 60.5978 53.475 62.7977 53.475H96.2215C98.4464 53.475 100.221 55.275 100.221 57.475C100.221 59.675 98.4214 61.475 96.2215 61.475Z" fill="url(#paint2_linear_120_29)" fill-opacity="0.5"/>
<path d="M96.2215 61.475H62.7977C60.5728 61.475 58.7979 59.675 58.7979 57.475C58.7979 55.275 60.5978 53.475 62.7977 53.475H96.2215C98.4464 53.475 100.221 55.275 100.221 57.475C100.221 59.675 98.4214 61.475 96.2215 61.475Z" fill="url(#paint3_radial_120_29)" fill-opacity="0.2"/>
<path d="M86.8718 85.525H72.1724C69.9474 85.525 68.1725 83.725 68.1725 81.525C68.1725 79.325 69.9724 77.525 72.1724 77.525H86.8718C89.0967 77.525 90.8717 79.325 90.8717 81.525C90.8717 83.725 89.0717 85.525 86.8718 85.525Z" fill="white"/>
<path d="M86.8718 85.525H72.1724C69.9474 85.525 68.1725 83.725 68.1725 81.525C68.1725 79.325 69.9724 77.525 72.1724 77.525H86.8718C89.0967 77.525 90.8717 79.325 90.8717 81.525C90.8717 83.725 89.0717 85.525 86.8718 85.525Z" fill="url(#paint4_linear_120_29)" fill-opacity="0.5"/>
<path d="M86.8718 85.525H72.1724C69.9474 85.525 68.1725 83.725 68.1725 81.525C68.1725 79.325 69.9724 77.525 72.1724 77.525H86.8718C89.0967 77.525 90.8717 79.325 90.8717 81.525C90.8717 83.725 89.0717 85.525 86.8718 85.525Z" fill="url(#paint5_radial_120_29)" fill-opacity="0.2"/>
<path fill-rule="evenodd" clip-rule="evenodd" d="M79.8927 4.53945C73.0026 1.6166 65.4254 0 57.4729 0C25.724 0 0 25.725 0 57.475C0 89.225 25.724 114.95 57.4729 114.95C64.131 114.95 70.5242 113.819 76.4707 111.738C83.3607 114.659 90.9393 116.275 98.8963 116.275C130.645 116.275 156.369 90.55 156.369 58.8C156.369 27.05 130.645 1.325 98.8963 1.325C92.236 1.325 85.8409 2.45711 79.8927 4.53945ZM79.6149 13.2618C95.7965 21.3959 106.921 38.1562 106.921 57.475C106.921 77.9124 94.471 95.4864 76.7543 103.013C60.5727 94.8791 49.4482 78.1188 49.4482 58.8C49.4482 38.3626 61.8982 20.7886 79.6149 13.2618ZM69.3763 9.4721C52.6289 19.5144 41.4235 37.845 41.4235 58.8C41.4235 78.4388 51.2654 95.7724 66.2874 106.139C63.4265 106.655 60.4807 106.925 57.4729 106.925C30.1989 106.925 8.0247 84.725 8.0247 57.475C8.0247 30.225 30.1989 8.025 57.4729 8.025C61.5754 8.025 65.5626 8.52674 69.3763 9.4721ZM90.0731 10.1378C105.095 20.5044 114.946 37.8372 114.946 57.475C114.946 78.43 103.74 96.7606 86.9929 106.803C90.8066 107.748 94.7938 108.25 98.8963 108.25C126.17 108.25 148.344 86.075 148.344 58.8C148.344 31.525 126.17 9.35 98.8963 9.35C95.8855 9.35 92.9367 9.62024 90.0731 10.1378Z" fill="white"/>
<path fill-rule="evenodd" clip-rule="evenodd" d="M79.8927 4.53945C73.0026 1.6166 65.4254 0 57.4729 0C25.724 0 0 25.725 0 57.475C0 89.225 25.724 114.95 57.4729 114.95C64.131 114.95 70.5242 113.819 76.4707 111.738C83.3607 114.659 90.9393 116.275 98.8963 116.275C130.645 116.275 156.369 90.55 156.369 58.8C156.369 27.05 130.645 1.325 98.8963 1.325C92.236 1.325 85.8409 2.45711 79.8927 4.53945ZM79.6149 13.2618C95.7965 21.3959 106.921 38.1562 106.921 57.475C106.921 77.9124 94.471 95.4864 76.7543 103.013C60.5727 94.8791 49.4482 78.1188 49.4482 58.8C49.4482 38.3626 61.8982 20.7886 79.6149 13.2618ZM69.3763 9.4721C52.6289 19.5144 41.4235 37.845 41.4235 58.8C41.4235 78.4388 51.2654 95.7724 66.2874 106.139C63.4265 106.655 60.4807 106.925 57.4729 106.925C30.1989 106.925 8.0247 84.725 8.0247 57.475C8.0247 30.225 30.1989 8.025 57.4729 8.025C61.5754 8.025 65.5626 8.52674 69.3763 9.4721ZM90.0731 10.1378C105.095 20.5044 114.946 37.8372 114.946 57.475C114.946 78.43 103.74 96.7606 86.9929 106.803C90.8066 107.748 94.7938 108.25 98.8963 108.25C126.17 108.25 148.344 86.075 148.344 58.8C148.344 31.525 126.17 9.35 98.8963 9.35C95.8855 9.35 92.9367 9.62024 90.0731 10.1378Z" fill="url(#paint6_linear_120_29)" fill-opacity="0.5"/>
<path fill-rule="evenodd" clip-rule="evenodd" d="M79.8927 4.53945C73.0026 1.6166 65.4254 0 57.4729 0C25.724 0 0 25.725 0 57.475C0 89.225 25.724 114.95 57.4729 114.95C64.131 114.95 70.5242 113.819 76.4707 111.738C83.3607 114.659 90.9393 116.275 98.8963 116.275C130.645 116.275 156.369 90.55 156.369 58.8C156.369 27.05 130.645 1.325 98.8963 1.325C92.236 1.325 85.8409 2.45711 79.8927 4.53945ZM79.6149 13.2618C95.7965 21.3959 106.921 38.1562 106.921 57.475C106.921 77.9124 94.471 95.4864 76.7543 103.013C60.5727 94.8791 49.4482 78.1188 49.4482 58.8C49.4482 38.3626 61.8982 20.7886 79.6149 13.2618ZM69.3763 9.4721C52.6289 19.5144 41.4235 37.845 41.4235 58.8C41.4235 78.4388 51.2654 95.7724 66.2874 106.139C63.4265 106.655 60.4807 106.925 57.4729 106.925C30.1989 106.925 8.0247 84.725 8.0247 57.475C8.0247 30.225 30.1989 8.025 57.4729 8.025C61.5754 8.025 65.5626 8.52674 69.3763 9.4721ZM90.0731 10.1378C105.095 20.5044 114.946 37.8372 114.946 57.475C114.946 78.43 103.74 96.7606 86.9929 106.803C90.8066 107.748 94.7938 108.25 98.8963 108.25C126.17 108.25 148.344 86.075 148.344 58.8C148.344 31.525 126.17 9.35 98.8963 9.35C95.8855 9.35 92.9367 9.62024 90.0731 10.1378Z" fill="url(#paint7_radial_120_29)" fill-opacity="0.2"/>
<path d="M196.368 0H210.942V42.65C214.767 32.775 224.992 25.65 237.116 25.65C260.365 25.65 273.715 43.325 273.715 67.275V114.625H259.14V67.275C259.14 49.075 250.116 38.15 235.741 38.15C220.142 38.15 210.942 49.775 210.942 68.5V114.625H196.368V0Z" fill="white"/>
<path d="M196.368 0H210.942V42.65C214.767 32.775 224.992 25.65 237.116 25.65C260.365 25.65 273.715 43.325 273.715 67.275V114.625H259.14V67.275C259.14 49.075 250.116 38.15 235.741 38.15C220.142 38.15 210.942 49.775 210.942 68.5V114.625H196.368V0Z" fill="url(#paint8_linear_120_29)" fill-opacity="0.5"/>
<path d="M196.368 0H210.942V42.65C214.767 32.775 224.992 25.65 237.116 25.65C260.365 25.65 273.715 43.325 273.715 67.275V114.625H259.14V67.275C259.14 49.075 250.116 38.15 235.741 38.15C220.142 38.15 210.942 49.775 210.942 68.5V114.625H196.368V0Z" fill="url(#paint9_radial_120_29)" fill-opacity="0.2"/>
<path fill-rule="evenodd" clip-rule="evenodd" d="M287.589 70.4C287.589 42.475 308.564 24.975 333.538 24.975C358.512 24.975 379.136 42.675 379.136 70.4C379.136 98.125 358.512 116.35 333.538 116.35C308.564 116.35 287.589 98.825 287.589 70.4ZM333.538 104.575C351.387 104.575 364.586 90.7 364.586 70.4C364.586 50.1 350.887 36.75 333.538 36.75C316.188 36.75 302.314 50.8 302.314 70.4C302.314 90 315.488 104.575 333.538 104.575Z" fill="white"/>
<path fill-rule="evenodd" clip-rule="evenodd" d="M287.589 70.4C287.589 42.475 308.564 24.975 333.538 24.975C358.512 24.975 379.136 42.675 379.136 70.4C379.136 98.125 358.512 116.35 333.538 116.35C308.564 116.35 287.589 98.825 287.589 70.4ZM333.538 104.575C351.387 104.575 364.586 90.7 364.586 70.4C364.586 50.1 350.887 36.75 333.538 36.75C316.188 36.75 302.314 50.8 302.314 70.4C302.314 90 315.488 104.575 333.538 104.575Z" fill="url(#paint10_linear_120_29)" fill-opacity="0.5"/>
<path fill-rule="evenodd" clip-rule="evenodd" d="M287.589 70.4C287.589 42.475 308.564 24.975 333.538 24.975C358.512 24.975 379.136 42.675 379.136 70.4C379.136 98.125 358.512 116.35 333.538 116.35C308.564 116.35 287.589 98.825 287.589 70.4ZM333.538 104.575C351.387 104.575 364.586 90.7 364.586 70.4C364.586 50.1 350.887 36.75 333.538 36.75C316.188 36.75 302.314 50.8 302.314 70.4C302.314 90 315.488 104.575 333.538 104.575Z" fill="url(#paint11_radial_120_29)" fill-opacity="0.2"/>
<path d="M395.635 0L395.46 89.3L395.485 89.325C395.485 108.75 406.235 113.425 419.409 114.65L419.584 102.675C412.985 101.625 410.035 98.15 410.035 87.75L410.21 0H395.635Z" fill="white"/>
<path d="M395.635 0L395.46 89.3L395.485 89.325C395.485 108.75 406.235 113.425 419.409 114.65L419.584 102.675C412.985 101.625 410.035 98.15 410.035 87.75L410.21 0H395.635Z" fill="url(#paint12_linear_120_29)" fill-opacity="0.5"/>
<path d="M395.635 0L395.46 89.3L395.485 89.325C395.485 108.75 406.235 113.425 419.409 114.65L419.584 102.675C412.985 101.625 410.035 98.15 410.035 87.75L410.21 0H395.635Z" fill="url(#paint13_radial_120_29)" fill-opacity="0.2"/>
<path fill-rule="evenodd" clip-rule="evenodd" d="M425.309 70.4C425.309 42.475 446.283 24.975 471.258 24.975C496.232 24.975 516.856 42.675 516.856 70.4C516.856 98.125 496.232 116.35 471.258 116.35C446.283 116.35 425.309 98.825 425.309 70.4ZM471.258 104.575C489.107 104.575 502.306 90.7 502.306 70.4C502.306 50.1 488.607 36.75 471.258 36.75C453.908 36.75 440.034 50.8 440.034 70.4C440.034 90 453.208 104.575 471.258 104.575Z" fill="white"/>
<path fill-rule="evenodd" clip-rule="evenodd" d="M425.309 70.4C425.309 42.475 446.283 24.975 471.258 24.975C496.232 24.975 516.856 42.675 516.856 70.4C516.856 98.125 496.232 116.35 471.258 116.35C446.283 116.35 425.309 98.825 425.309 70.4ZM471.258 104.575C489.107 104.575 502.306 90.7 502.306 70.4C502.306 50.1 488.607 36.75 471.258 36.75C453.908 36.75 440.034 50.8 440.034 70.4C440.034 90 453.208 104.575 471.258 104.575Z" fill="url(#paint14_linear_120_29)" fill-opacity="0.5"/>
<path fill-rule="evenodd" clip-rule="evenodd" d="M425.309 70.4C425.309 42.475 446.283 24.975 471.258 24.975C496.232 24.975 516.856 42.675 516.856 70.4C516.856 98.125 496.232 116.35 471.258 116.35C446.283 116.35 425.309 98.825 425.309 70.4ZM471.258 104.575C489.107 104.575 502.306 90.7 502.306 70.4C502.306 50.1 488.607 36.75 471.258 36.75C453.908 36.75 440.034 50.8 440.034 70.4C440.034 90 453.208 104.575 471.258 104.575Z" fill="url(#paint15_radial_120_29)" fill-opacity="0.2"/>
<path d="M546.355 26.7H531.58V114.625H546.33V63.125C546.33 47.35 558.829 37.125 572.004 37.3C587.428 37.3 593.678 46.65 593.678 63.65V114.625H608.427V63.65C608.427 39.2 598.728 25.15 576.354 24.8C565.079 24.625 551.029 31.2 546.355 42.475V26.7Z" fill="white"/>
<path d="M546.355 26.7H531.58V114.625H546.33V63.125C546.33 47.35 558.829 37.125 572.004 37.3C587.428 37.3 593.678 46.65 593.678 63.65V114.625H608.427V63.65C608.427 39.2 598.728 25.15 576.354 24.8C565.079 24.625 551.029 31.2 546.355 42.475V26.7Z" fill="url(#paint16_linear_120_29)" fill-opacity="0.5"/>
<path d="M546.355 26.7H531.58V114.625H546.33V63.125C546.33 47.35 558.829 37.125 572.004 37.3C587.428 37.3 593.678 46.65 593.678 63.65V114.625H608.427V63.65C608.427 39.2 598.728 25.15 576.354 24.8C565.079 24.625 551.029 31.2 546.355 42.475V26.7Z" fill="url(#paint17_radial_120_29)" fill-opacity="0.2"/>
<path d="M626.677 121.225H641.901C644.676 131.45 652.651 138.225 663.75 138.225C676.05 138.225 686.824 130.95 686.824 113.075V99.2C682.15 110.475 668.1 116.725 656.826 116.55C634.451 116.2 624.752 102.15 624.752 77.7V26.7H639.476V77.7C639.476 94.7 645.726 104.05 661.15 104.05C674.325 104.225 686.824 94 686.824 78.225V26.7H701.574V110.975C701.574 139.75 683.874 150 663.775 150C643.676 150 630.651 139.075 626.677 121.225Z" fill="white"/>
<path d="M626.677 121.225H641.901C644.676 131.45 652.651 138.225 663.75 138.225C676.05 138.225 686.824 130.95 686.824 113.075V99.2C682.15 110.475 668.1 116.725 656.826 116.55C634.451 116.2 624.752 102.15 624.752 77.7V26.7H639.476V77.7C639.476 94.7 645.726 104.05 661.15 104.05C674.325 104.225 686.824 94 686.824 78.225V26.7H701.574V110.975C701.574 139.75 683.874 150 663.775 150C643.676 150 630.651 139.075 626.677 121.225Z" fill="url(#paint18_linear_120_29)" fill-opacity="0.5"/>
<path d="M626.677 121.225H641.901C644.676 131.45 652.651 138.225 663.75 138.225C676.05 138.225 686.824 130.95 686.824 113.075V99.2C682.15 110.475 668.1 116.725 656.826 116.55C634.451 116.2 624.752 102.15 624.752 77.7V26.7H639.476V77.7C639.476 94.7 645.726 104.05 661.15 104.05C674.325 104.225 686.824 94 686.824 78.225V26.7H701.574V110.975C701.574 139.75 683.874 150 663.775 150C643.676 150 630.651 139.075 626.677 121.225Z" fill="url(#paint19_radial_120_29)" fill-opacity="0.2"/>
<path d="M732.598 26.7H717.823V114.65H732.573V63.15C732.573 49.8 742.622 37.3 756.322 37.475C769.496 37.475 775.221 45.975 775.221 63.65V114.65H789.796V63.675C789.796 58.125 789.446 53.6 788.396 49.275C792.57 42.5 800.545 37.3 808.87 37.475C820.32 37.475 827.594 45.275 827.594 61.4V114.6H842.169V61.375C842.169 37.775 831.594 25.3 813.22 24.95C803.495 24.775 790.671 29.475 785.121 39.7C780.796 29.45 773.521 25.125 761.372 24.95C751.147 24.8 737.623 30.325 732.598 42.475V26.7Z" fill="white"/>
<path d="M732.598 26.7H717.823V114.65H732.573V63.15C732.573 49.8 742.622 37.3 756.322 37.475C769.496 37.475 775.221 45.975 775.221 63.65V114.65H789.796V63.675C789.796 58.125 789.446 53.6 788.396 49.275C792.57 42.5 800.545 37.3 808.87 37.475C820.32 37.475 827.594 45.275 827.594 61.4V114.6H842.169V61.375C842.169 37.775 831.594 25.3 813.22 24.95C803.495 24.775 790.671 29.475 785.121 39.7C780.796 29.45 773.521 25.125 761.372 24.95C751.147 24.8 737.623 30.325 732.598 42.475V26.7Z" fill="url(#paint20_linear_120_29)" fill-opacity="0.5"/>
<path d="M732.598 26.7H717.823V114.65H732.573V63.15C732.573 49.8 742.622 37.3 756.322 37.475C769.496 37.475 775.221 45.975 775.221 63.65V114.65H789.796V63.675C789.796 58.125 789.446 53.6 788.396 49.275C792.57 42.5 800.545 37.3 808.87 37.475C820.32 37.475 827.594 45.275 827.594 61.4V114.6H842.169V61.375C842.169 37.775 831.594 25.3 813.22 24.95C803.495 24.775 790.671 29.475 785.121 39.7C780.796 29.45 773.521 25.125 761.372 24.95C751.147 24.8 737.623 30.325 732.598 42.475V26.7Z" fill="url(#paint21_radial_120_29)" fill-opacity="0.2"/>
<defs>
<linearGradient id="paint0_linear_120_29" x1="421.084" y1="-71.3855" x2="421.084" y2="220.03" gradientUnits="userSpaceOnUse">
<stop offset="0.0356506" stop-color="white" stop-opacity="0"/>
<stop offset="0.690702" stop-color="#02020E"/>
</linearGradient>
<radialGradient id="paint1_radial_120_29" cx="0" cy="0" r="1" gradientUnits="userSpaceOnUse" gradientTransform="translate(421.084 251.205) rotate(-90) scale(370.482 2080.05)">
<stop stop-color="#E18835"/>
<stop offset="1" stop-color="#010102" stop-opacity="0"/>
</radialGradient>
<linearGradient id="paint2_linear_120_29" x1="421.084" y1="-71.3855" x2="421.084" y2="220.03" gradientUnits="userSpaceOnUse">
<stop offset="0.0356506" stop-color="white" stop-opacity="0"/>
<stop offset="0.690702" stop-color="#02020E"/>
</linearGradient>
<radialGradient id="paint3_radial_120_29" cx="0" cy="0" r="1" gradientUnits="userSpaceOnUse" gradientTransform="translate(421.084 251.205) rotate(-90) scale(370.482 2080.05)">
<stop stop-color="#E18835"/>
<stop offset="1" stop-color="#010102" stop-opacity="0"/>
</radialGradient>
<linearGradient id="paint4_linear_120_29" x1="421.084" y1="-71.3855" x2="421.084" y2="220.03" gradientUnits="userSpaceOnUse">
<stop offset="0.0356506" stop-color="white" stop-opacity="0"/>
<stop offset="0.690702" stop-color="#02020E"/>
</linearGradient>
<radialGradient id="paint5_radial_120_29" cx="0" cy="0" r="1" gradientUnits="userSpaceOnUse" gradientTransform="translate(421.084 251.205) rotate(-90) scale(370.482 2080.05)">
<stop stop-color="#E18835"/>
<stop offset="1" stop-color="#010102" stop-opacity="0"/>
</radialGradient>
<linearGradient id="paint6_linear_120_29" x1="421.084" y1="-71.3855" x2="421.084" y2="220.03" gradientUnits="userSpaceOnUse">
<stop offset="0.0356506" stop-color="white" stop-opacity="0"/>
<stop offset="0.690702" stop-color="#02020E"/>
</linearGradient>
<radialGradient id="paint7_radial_120_29" cx="0" cy="0" r="1" gradientUnits="userSpaceOnUse" gradientTransform="translate(421.084 251.205) rotate(-90) scale(370.482 2080.05)">
<stop stop-color="#E18835"/>
<stop offset="1" stop-color="#010102" stop-opacity="0"/>
</radialGradient>
<linearGradient id="paint8_linear_120_29" x1="421.084" y1="-71.3855" x2="421.084" y2="220.03" gradientUnits="userSpaceOnUse">
<stop offset="0.0356506" stop-color="white" stop-opacity="0"/>
<stop offset="0.690702" stop-color="#02020E"/>
</linearGradient>
<radialGradient id="paint9_radial_120_29" cx="0" cy="0" r="1" gradientUnits="userSpaceOnUse" gradientTransform="translate(421.084 251.205) rotate(-90) scale(370.482 2080.05)">
<stop stop-color="#E18835"/>
<stop offset="1" stop-color="#010102" stop-opacity="0"/>
</radialGradient>
<linearGradient id="paint10_linear_120_29" x1="421.084" y1="-71.3855" x2="421.084" y2="220.03" gradientUnits="userSpaceOnUse">
<stop offset="0.0356506" stop-color="white" stop-opacity="0"/>
<stop offset="0.690702" stop-color="#02020E"/>
</linearGradient>
<radialGradient id="paint11_radial_120_29" cx="0" cy="0" r="1" gradientUnits="userSpaceOnUse" gradientTransform="translate(421.084 251.205) rotate(-90) scale(370.482 2080.05)">
<stop stop-color="#E18835"/>
<stop offset="1" stop-color="#010102" stop-opacity="0"/>
</radialGradient>
<linearGradient id="paint12_linear_120_29" x1="421.084" y1="-71.3855" x2="421.084" y2="220.03" gradientUnits="userSpaceOnUse">
<stop offset="0.0356506" stop-color="white" stop-opacity="0"/>
<stop offset="0.690702" stop-color="#02020E"/>
</linearGradient>
<radialGradient id="paint13_radial_120_29" cx="0" cy="0" r="1" gradientUnits="userSpaceOnUse" gradientTransform="translate(421.084 251.205) rotate(-90) scale(370.482 2080.05)">
<stop stop-color="#E18835"/>
<stop offset="1" stop-color="#010102" stop-opacity="0"/>
</radialGradient>
<linearGradient id="paint14_linear_120_29" x1="421.084" y1="-71.3855" x2="421.084" y2="220.03" gradientUnits="userSpaceOnUse">
<stop offset="0.0356506" stop-color="white" stop-opacity="0"/>
<stop offset="0.690702" stop-color="#02020E"/>
</linearGradient>
<radialGradient id="paint15_radial_120_29" cx="0" cy="0" r="1" gradientUnits="userSpaceOnUse" gradientTransform="translate(421.084 251.205) rotate(-90) scale(370.482 2080.05)">
<stop stop-color="#E18835"/>
<stop offset="1" stop-color="#010102" stop-opacity="0"/>
</radialGradient>
<linearGradient id="paint16_linear_120_29" x1="421.084" y1="-71.3855" x2="421.084" y2="220.03" gradientUnits="userSpaceOnUse">
<stop offset="0.0356506" stop-color="white" stop-opacity="0"/>
<stop offset="0.690702" stop-color="#02020E"/>
</linearGradient>
<radialGradient id="paint17_radial_120_29" cx="0" cy="0" r="1" gradientUnits="userSpaceOnUse" gradientTransform="translate(421.084 251.205) rotate(-90) scale(370.482 2080.05)">
<stop stop-color="#E18835"/>
<stop offset="1" stop-color="#010102" stop-opacity="0"/>
</radialGradient>
<linearGradient id="paint18_linear_120_29" x1="421.084" y1="-71.3855" x2="421.084" y2="220.03" gradientUnits="userSpaceOnUse">
<stop offset="0.0356506" stop-color="white" stop-opacity="0"/>
<stop offset="0.690702" stop-color="#02020E"/>
</linearGradient>
<radialGradient id="paint19_radial_120_29" cx="0" cy="0" r="1" gradientUnits="userSpaceOnUse" gradientTransform="translate(421.084 251.205) rotate(-90) scale(370.482 2080.05)">
<stop stop-color="#E18835"/>
<stop offset="1" stop-color="#010102" stop-opacity="0"/>
</radialGradient>
<linearGradient id="paint20_linear_120_29" x1="421.084" y1="-71.3855" x2="421.084" y2="220.03" gradientUnits="userSpaceOnUse">
<stop offset="0.0356506" stop-color="white" stop-opacity="0"/>
<stop offset="0.690702" stop-color="#02020E"/>
</linearGradient>
<radialGradient id="paint21_radial_120_29" cx="0" cy="0" r="1" gradientUnits="userSpaceOnUse" gradientTransform="translate(421.084 251.205) rotate(-90) scale(370.482 2080.05)">
<stop stop-color="#E18835"/>
<stop offset="1" stop-color="#010102" stop-opacity="0"/>
</radialGradient>
</defs>
</svg>
